<?xml version="1.0" encoding="utf-8"?>
<!-- Generator: Adobe Illustrator 24.1.2, SVG Export Plug-In . SVG Version: 6.00 Build 0)  -->
<svg version="1.1" xmlns="http://www.w3.org/2000/svg" xmlns:xlink="http://www.w3.org/1999/xlink" x="0px" y="0px"
	 viewBox="0 0 128 128" style="enable-background:new 0 0 128 128;" xml:space="preserve">
<style type="text/css">
	.st0{display:none;}
	.st1{display:inline;opacity:0.43;fill:#363D52;stroke:#212532;stroke-width:4;}
	.st2{display:inline;opacity:0.43;}
	.st3{fill:#FFFFFF;}
	.st4{fill:#478CBF;}
	.st5{fill:#414042;}
	.st6{fill:#F7931E;}
	.st7{fill:#F15A24;}
	.st8{fill:#FBB03B;}
	.st9{opacity:0.15;fill:#F7931E;}
	.st10{fill:#FFE0B8;}
	.st11{fill:#C1272D;}
	.st12{fill:none;stroke:#FFFFFF;stroke-width:4.8547;stroke-linecap:round;stroke-linejoin:bevel;}
	.st13{opacity:0.5;fill:#F15A24;}
</style>
<g id="Layer_1" class="st0">
	<path class="st1" d="M15.53,1.8h96c7.73,0,14,6.27,14,14v96c0,7.73-6.27,14-14,14h-96c-7.73,0-14-6.27-14-14v-96
		C1.53,8.07,7.8,1.8,15.53,1.8z"/>
	<g transform="translate(12.322 12.322)scale(.101)" class="st2">
		<path class="st3" d="M100.32,671.04v33c271.33,236,542.67,236,814,0v-33H100.32z"/>
		<path class="st4" d="M100.32,671.04l152,14c8,0.67,13,5.33,15,14l4,67l132,10l8-61c1.33-7.33,6.33-12.33,15-15h162
			c8.67,2.67,13.67,7.67,15,15l8,61l132-10l4-67c2-8.67,7-13.33,15-14l152-14v-246c20-26,38.67-53,56-81
			c-23.33-39.33-51-75.33-83-108c-28.67,13.33-56,29-82,47c-26.67-24.67-56-46-88-64c4.67-34,7.33-68,8-102
			c-39.33-18.67-80.33-32.67-123-42c-17.33,28.67-32.67,58.33-46,89c-32.67-4.67-65.33-4.67-98,0c-13.33-30.67-28.67-60.33-46-89
			c-42.67,9.33-83.67,23.33-123,42c0.67,34,3.33,68,8,102c-32,18-61.33,39.33-88,64c-26-18-53.33-33.67-82-47
			c-32,32.67-59.67,68.67-83,108c17.33,28,36,55,56,81V671.04z M100.32,704.04v39c0,276,813,276,814,0v-39l-134,12l-5,69
			c-1.33,6.67-6,11-14,13l-162,11c-8,0-13.33-3.67-16-11l-10-65h-132l-10,65c-2.67,7.33-8,11-16,11l-162-11c-8-2-12.67-6.33-14-13
			l-5-69L100.32,704.04z"/>
		<path class="st3" d="M478.32,598.04c0,34,58,34,58,0v-86c0-34-58-34-58,0V598.04z"/>
		<circle class="st3" cx="720.32" cy="524.04" r="90"/>
		<circle class="st3" cx="294.32" cy="524.04" r="90"/>
	</g>
	<g transform="translate(12.322 12.322)scale(.101)" class="st2">
		<circle class="st5" cx="302.32" cy="530.04" r="60"/>
		<circle class="st5" cx="712.32" cy="530.04" r="60"/>
	</g>
</g>
<g id="Layer_2">
	<g>
		<path class="st6" d="M101.89,126.45H26.11c-13.56,0-24.56-11-24.56-24.56V26.11c0-13.56,11-24.56,24.56-24.56h75.78
			c13.56,0,24.56,11,24.56,24.56v75.78C126.45,115.46,115.46,126.45,101.89,126.45z"/>
		<path class="st7" d="M101.89,128H26.11C11.71,128,0,116.29,0,101.89V26.11C0,11.71,11.71,0,26.11,0h75.78
			C116.29,0,128,11.71,128,26.11v75.78C128,116.29,116.29,128,101.89,128z M26.11,3.1C13.42,3.1,3.1,13.42,3.1,26.11v75.78
			c0,12.69,10.32,23.01,23.01,23.01h75.78c12.69,0,23.01-10.32,23.01-23.01V26.11c0-12.69-10.32-23.01-23.01-23.01H26.11z"/>
	</g>
	<g>
		<g>
			<g>
				<g id="Ears_12_">
					<g>
						<g>
							<path class="st3" d="M48.27,41.88c-3.39-5.28-8.88-9.16-14.97-10.59c-0.46-0.11-0.95-0.2-1.38-0.03
								c-0.35,0.14-0.61,0.42-0.85,0.7c-5.97,6.83-8.46,16.56-6.51,25.42c0.39,1.78,0.97,3.56,2.04,5.04
								c2.12,2.94,5.91,4.3,9.28,5.1c2.39,0.56,4.85,0.81,7.31,0.75c1.21-0.03,2.44-0.15,3.53-0.68c3.1-1.51,4.88-7.12,5.36-10.36
								C52.82,52.07,51.04,46.19,48.27,41.88z"/>
							<g>
								<path class="st7" d="M49.15,41.36c-3.39-4.93-14.36-15.66-19.94-8.75c-5.93,7.35-9,20.47-4.23,29.17
									c2.16,3.93,6.43,5.76,10.61,6.73c3.79,0.88,9.39,1.88,12.73-0.76C56.07,61.6,53.4,48.46,49.15,41.36
									c-0.68-1.13-2.45-0.1-1.77,1.03c3.75,6.27,5.95,15.86,0.91,22.22c-5.27,6.65-20.23,1.18-22.43-6.17
									c-2.06-6.88-0.8-14.81,2.63-21.03c0.65-1.17,2.03-4.12,3.29-4.73c1.84-0.89,4.77,0.65,6.4,1.48c3.8,1.92,6.8,4.75,9.19,8.23
									C48.13,43.47,49.9,42.45,49.15,41.36z"/>
							</g>
						</g>
						<path class="st7" d="M35.41,37.9c-0.25-0.13-0.52-0.25-0.79-0.2c-0.29,0.05-0.5,0.29-0.68,0.52c-3.16,3.89-4.58,9-4.58,14.01
							c0,4.05,0.98,8.36,6.02,10.11c0.96,0.33,2,0.43,3.01,0.28c6.84-1.01,7.78-7.48,6.47-12.67C43.57,44.86,40.09,40.31,35.41,37.9
							z"/>
					</g>
					<g>
						<g>
							<path class="st3" d="M79.63,41.88c3.39-5.28,8.88-9.16,14.97-10.59c0.46-0.11,0.95-0.2,1.38-0.03
								c0.35,0.14,0.61,0.42,0.85,0.7c5.97,6.83,8.46,16.56,6.51,25.42c-0.39,1.78-0.97,3.56-2.04,5.04
								c-2.12,2.94-5.91,4.3-9.28,5.1c-2.39,0.56-4.85,0.81-7.31,0.75c-1.21-0.03-2.44-0.15-3.53-0.68
								c-3.1-1.51-4.88-7.12-5.36-10.36C75.08,52.07,76.86,46.19,79.63,41.88z"/>
							<g>
								<path class="st7" d="M80.52,42.39c2.26-3.29,5.02-5.97,8.56-7.89c1.7-0.93,3.71-2.08,5.72-1.84c2.3,0.27,3.1,2.17,4.23,4.1
									c3.7,6.31,5.18,14.58,3.01,21.68c-1.35,4.4-4.76,6.55-8.99,7.76c-3.77,1.08-9.72,2.42-12.82-0.69
									C74.24,59.53,76.79,48.62,80.52,42.39c0.68-1.13-1.09-2.17-1.77-1.03c-4.25,7.11-6.91,20.24,0.83,26.38
									c3.33,2.64,8.93,1.63,12.73,0.76c4.18-0.96,8.46-2.8,10.61-6.73c4.74-8.65,1.75-21.89-4.23-29.17
									c-2.69-3.28-4.77-2.55-8.58-0.89c-4.71,2.05-8.46,5.43-11.36,9.64C78,42.45,79.78,43.47,80.52,42.39z"/>
							</g>
						</g>
						<path class="st7" d="M92.49,37.9c0.25-0.13,0.52-0.25,0.79-0.2c0.29,0.05,0.5,0.29,0.68,0.52c3.16,3.89,4.58,9,4.58,14.01
							c0,4.05-0.98,8.36-6.02,10.11c-0.96,0.33-2,0.43-3.01,0.28c-6.84-1.01-7.78-7.48-6.47-12.67
							C84.33,44.86,87.81,40.31,92.49,37.9z"/>
					</g>
				</g>
				<g>
					<g id="Head_14_">
						<g>
							<g>
								<path class="st3" d="M27.83,60.77c3.08-6.23,11.25-27.69,35.33-24.11L62.9,36.7c24.08-3.57,32.26,17.88,35.33,24.11
									c6.54,13.24,2.79,21.36-3.92,26.66c-0.49,0.39-1,0.76-1.52,1.12c-0.56,0.39-1.14,0.75-1.72,1.11
									c0.34,0.47,0.68,0.96,1.03,1.46c-4.57,3.47-15.69,5.91-28.67,5.91c-13.5,0-24.98-2.64-29.19-6.33
									c0.26-0.37,0.51-0.72,0.76-1.07c-0.42-0.25-0.83-0.51-1.24-0.78c-0.41-0.27-0.81-0.55-1.2-0.83
									C25.35,82.78,21.02,74.54,27.83,60.77z"/>
								<g>
									<path class="st8" d="M28.71,61.29c2.55-5.24,5.03-10.45,8.98-14.82c6.7-7.41,15.68-10.05,25.47-8.78
										c-0.09-0.67-0.18-1.34-0.27-2.01c-0.09,0.01-0.17,0.03-0.26,0.04c-1.13,0.18-0.87,2.16,0.27,2.01
										c13.73-1.77,24.31,4.77,30.92,16.53c2.43,4.32,5.01,9.24,6.13,14.02c2.1,8.97-1.85,15.84-9.4,20.54
										c-0.44,0.27-0.7,0.94-0.37,1.4c0.34,0.49,0.69,0.97,1.03,1.46c0.12-0.47,0.24-0.93,0.37-1.4
										c-7.45,5.22-18.5,5.69-27.23,5.76c-5.76,0.05-11.57-0.33-17.24-1.43c-1-0.2-12.16-3.1-11.23-4.42
										c0.33-0.46,0.07-1.13-0.37-1.4C24.96,82.11,23.54,72.33,28.71,61.29c0.56-1.19-1.21-2.23-1.77-1.03
										c-5.67,12.1-4.05,22.98,7.54,30.3c-0.12-0.47-0.24-0.93-0.37-1.4c-0.25,0.36-0.51,0.71-0.76,1.07
										c-0.24,0.33-0.17,0.98,0.16,1.24c7.56,6.05,19.74,6.54,28.95,6.62c9.59,0.09,21.95-0.31,30.15-6.04
										c0.42-0.3,0.71-0.92,0.37-1.4c-0.34-0.49-0.69-0.97-1.03-1.46c-0.12,0.47-0.24,0.93-0.37,1.4
										c6.01-3.74,10.74-9.07,11.07-16.45c0.31-6.92-3.15-13.58-6.32-19.56c-6.9-13-18.32-20.86-33.43-18.91
										c0.09,0.67,0.18,1.34,0.27,2.01c0.09-0.01,0.17-0.03,0.26-0.04c1.25-0.2,0.76-1.88-0.27-2.01
										c-9.55-1.23-18.64,1.14-25.58,7.99c-4.8,4.74-7.72,10.65-10.63,16.63C26.37,61.43,28.13,62.47,28.71,61.29z"/>
								</g>
							</g>
							<path class="st8" d="M58.79,49.14c-0.47,5.52-0.94,11.04-1.41,16.55c-0.13,1.54-0.51,3.07-1.22,4.44
								c-2.27,4.43-5.35,3.77-8.17,3.1c-7.61-1.84-15.15-3.92-22.62-6.25c0.55-1.94,1.36-4.01,2.45-6.22
								c2.95-5.98,10.6-25.98,32.49-24.42C60.65,40.11,59.06,45.93,58.79,49.14z"/>
							<path class="st9" d="M97.29,84.31c-1.2,2.26-2.87,4.18-4.81,5.82c-0.46,0.39-0.93,0.76-1.42,1.12
								c-0.52,0.39-1.06,0.75-1.6,1.11c0.06,0.09,0.12,0.18,0.18,0.27c-6.27,2.33-15.69,3.82-26.22,3.82
								c-10.52,0-19.94-1.48-26.21-3.82c0.07-0.1,0.13-0.2,0.2-0.3c-0.39-0.25-0.77-0.51-1.15-0.78c-0.38-0.27-0.75-0.55-1.11-0.83
								c-2.26-1.78-4.21-3.9-5.57-6.45c0.04-0.09,0.08-0.18,0.13-0.27c3.14,4.88,16.95,8.56,33.52,8.56
								c16.93,0,30.98-3.84,33.71-8.88C97.08,83.89,97.2,84.1,97.29,84.31z"/>
						</g>
						<g>
							<g>
								<g>
									<path class="st7" d="M97.97,68.79c3.96-1.2,7.96-1.66,12.08-1.39c1.32,0.09,1.31-1.96,0-2.05
										c-4.31-0.28-8.5,0.21-12.63,1.47C96.17,67.19,96.7,69.17,97.97,68.79L97.97,68.79z"/>
								</g>
							</g>
							<g>
								<g>
									<path class="st7" d="M96.96,75.72c2.16,0.33,4.28,0.79,6.36,1.46c0.89,0.29,1.77,0.61,2.63,0.96
										c0.65,0.26,3.26,1.08,3.72,1.74c0.2-0.5,0.41-1,0.61-1.5c-0.03,0.01-0.06,0.01-0.09,0.02c0.42,0.24,0.84,0.48,1.26,0.72
										c0-0.02-0.01-0.04-0.01-0.06c-0.25-1.29-2.23-0.75-1.98,0.54c0,0.02,0.01,0.04,0.01,0.06c0.11,0.57,0.75,0.82,1.26,0.72
										c0.03-0.01,0.06-0.01,0.09-0.02c0.61-0.13,0.98-0.98,0.61-1.5c-1.05-1.49-3.72-2.2-5.38-2.85
										c-2.76-1.09-5.62-1.8-8.56-2.25C96.22,73.55,95.66,75.52,96.96,75.72L96.96,75.72z"/>
								</g>
							</g>
							<g>
								<g>
									<path class="st7" d="M96.2,82.37c-0.53,0.67,1.32,1.25,1.95,1.64c1.05,0.66,2.07,1.38,3.03,2.17
										c1.68,1.39,3.18,2.97,4.54,4.68c0.82,1.03,2.26-0.43,1.45-1.45c-1.95-2.45-4.2-4.59-6.77-6.38
										c-0.97-0.68-4.45-3.62-5.64-2.12C93.94,81.94,95.38,83.4,96.2,82.37L96.2,82.37z"/>
								</g>
							</g>
						</g>
						<g>
							<g>
								<g>
									<path class="st7" d="M28.81,66.81c-4.13-1.26-8.32-1.75-12.63-1.47c-1.31,0.09-1.32,2.13,0,2.05
										c4.13-0.27,8.13,0.19,12.08,1.39C29.53,69.17,30.07,67.2,28.81,66.81L28.81,66.81z"/>
								</g>
							</g>
							<g>
								<g>
									<path class="st7" d="M28.73,73.75c-2.93,0.45-5.79,1.17-8.56,2.25c-1.65,0.65-4.34,1.37-5.38,2.85
										c-0.37,0.52,0,1.38,0.61,1.5c0.03,0.01,0.06,0.01,0.09,0.02c0.51,0.11,1.15-0.14,1.26-0.72c0-0.02,0.01-0.04,0.01-0.06
										c0.25-1.29-1.72-1.84-1.98-0.54c0,0.02-0.01,0.04-0.01,0.06c0.42-0.24,0.84-0.48,1.26-0.72c-0.03-0.01-0.06-0.01-0.09-0.02
										c0.2,0.5,0.41,1,0.61,1.5c0.46-0.66,3.07-1.47,3.72-1.74c0.86-0.35,1.74-0.67,2.63-0.96c2.08-0.67,4.2-1.13,6.36-1.46
										C30.57,75.52,30.02,73.55,28.73,73.75L28.73,73.75z"/>
								</g>
							</g>
							<g>
								<g>
									<path class="st7" d="M31.49,80.92c-1.19-1.5-4.71,1.47-5.64,2.12c-2.57,1.79-4.82,3.93-6.77,6.38
										c-0.81,1.02,0.63,2.48,1.45,1.45c1.36-1.71,2.85-3.29,4.54-4.68c0.86-0.72,1.78-1.37,2.72-1.98
										c0.51-0.33,1.03-0.64,1.56-0.93c0.5-0.28,1.17-0.31,0.7-0.9C30.85,83.4,32.29,81.94,31.49,80.92L31.49,80.92z"/>
								</g>
							</g>
						</g>
					</g>
					<g id="Face-detail-whiskers_14_">
						<ellipse class="st10" cx="38.57" cy="78.3" rx="5.12" ry="5.13"/>
						<ellipse class="st10" cx="88.29" cy="78.3" rx="5.12" ry="5.13"/>
					</g>
				</g>
				<g id="Face_13_">
					<path class="st11" d="M55.55,68.77c0,2.83-1.81,5.13-4.04,5.13c-1.38,0-2.6-0.88-3.33-2.22c1.45-0.29,2.52-1.32,2.52-2.56
						c0-1.32-1.23-2.41-2.83-2.6c0.66-1.71,2.04-2.88,3.63-2.88C53.74,63.64,55.55,65.93,55.55,68.77z"/>
					<path class="st11" d="M73.77,68.85c0,2.83,1.81,5.13,4.04,5.13c1.38,0,2.6-0.88,3.33-2.22c-1.45-0.29-2.52-1.32-2.52-2.56
						c0-1.32,1.23-2.41,2.83-2.6c-0.66-1.71-2.04-2.88-3.63-2.88C75.58,63.72,73.77,66.01,73.77,68.85z"/>
					<path class="st11" d="M76.52,77.9c-0.49,0.62-1,1.2-1.67,1.63c-0.89,0.57-1.94,0.82-2.98,0.88c-1.31,0.07-2.66-0.12-3.9-0.56
						c-0.89-0.32-1.74-0.77-2.47-1.38c-0.25-0.21-0.53-0.46-0.74-0.73c-0.26,0.33-0.6,0.61-0.9,0.84c-1.8,1.4-4.31,1.98-6.56,1.75
						c-1-0.1-1.99-0.4-2.82-1c-0.57-0.41-1.01-0.92-1.44-1.47c-0.24-0.31,0.19-0.75,0.43-0.43c0.44,0.56,0.9,1.11,1.5,1.5
						c0.83,0.55,1.81,0.78,2.8,0.83c1.73,0.07,3.5-0.31,5-1.14c0.29-0.16,0.56-0.37,0.81-0.58c0.29-0.24,0.57-0.48,0.77-0.77V75
						c-1.73-0.17-3.07-1.39-3.07-2.44c0-1.13,1.56-2.05,3.48-2.05c1.92,0,3.48,0.92,3.48,2.05c0,1.05-1.34,2.27-3.07,2.44v2.25
						c0.22,0.35,0.58,0.65,0.92,0.91c1.7,1.31,4.06,1.82,6.16,1.6c0.91-0.09,1.79-0.39,2.53-0.93c0.51-0.38,0.91-0.87,1.3-1.36
						C76.33,77.16,76.76,77.59,76.52,77.9z"/>
					<path class="st11" d="M54.24,59.99c-0.88-1.91-2.49-3.58-4.94-3.99c-2.84-0.48-4.86,0.96-6.6,2.79
						c-0.97,1.02,0.49,2.54,1.52,1.58c1.21-1.13,2.39-2.66,4.42-2.39c1.61,0.21,2.73,1.31,3.31,2.56
						C52.5,61.75,54.8,61.22,54.24,59.99L54.24,59.99z"/>
					<path class="st11" d="M74.62,59.99c0.88-1.91,2.49-3.58,4.94-3.99c2.84-0.48,4.86,0.96,6.6,2.79c0.97,1.02-0.49,2.54-1.52,1.58
						c-1.21-1.13-2.39-2.66-4.42-2.39c-1.61,0.21-2.73,1.31-3.31,2.56C76.35,61.75,74.05,61.22,74.62,59.99L74.62,59.99z"/>
				</g>
			</g>
			<g>
				<g id="Ears_10_">
					<g>
						<g>
							<path class="st12" d="M48.27,41.88c-3.39-5.28-8.88-9.16-14.97-10.59c-0.46-0.11-0.95-0.2-1.38-0.03
								c-0.35,0.14-0.61,0.42-0.85,0.7c-5.97,6.83-8.46,16.56-6.51,25.42c0.39,1.78,0.97,3.56,2.04,5.04
								c2.12,2.94,5.91,4.3,9.28,5.1c2.39,0.56,4.85,0.81,7.31,0.75c1.21-0.03,2.44-0.15,3.53-0.68c3.1-1.51,4.88-7.12,5.36-10.36
								C52.82,52.07,51.04,46.19,48.27,41.88z"/>
							<g>
								<path class="st12" d="M49.15,41.36c-3.39-4.93-14.36-15.66-19.94-8.75c-5.93,7.35-9,20.47-4.23,29.17
									c2.16,3.93,6.43,5.76,10.61,6.73c3.79,0.88,9.39,1.88,12.73-0.76C56.07,61.6,53.4,48.46,49.15,41.36
									c-0.68-1.13-2.45-0.1-1.77,1.03c3.75,6.27,5.95,15.86,0.91,22.22c-5.27,6.65-20.23,1.18-22.43-6.17
									c-2.06-6.88-0.8-14.81,2.63-21.03c0.65-1.17,2.03-4.12,3.29-4.73c1.84-0.89,4.77,0.65,6.4,1.48c3.8,1.92,6.8,4.75,9.19,8.23
									C48.13,43.47,49.9,42.45,49.15,41.36z"/>
							</g>
						</g>
						<path class="st12" d="M35.41,37.9c-0.25-0.13-0.52-0.25-0.79-0.2c-0.29,0.05-0.5,0.29-0.68,0.52c-3.16,3.89-4.58,9-4.58,14.01
							c0,4.05,0.98,8.36,6.02,10.11c0.96,0.33,2,0.43,3.01,0.28c6.84-1.01,7.78-7.48,6.47-12.67C43.57,44.86,40.09,40.31,35.41,37.9
							z"/>
					</g>
					<g>
						<g>
							<path class="st12" d="M79.63,41.88c3.39-5.28,8.88-9.16,14.97-10.59c0.46-0.11,0.95-0.2,1.38-0.03
								c0.35,0.14,0.61,0.42,0.85,0.7c5.97,6.83,8.46,16.56,6.51,25.42c-0.39,1.78-0.97,3.56-2.04,5.04
								c-2.12,2.94-5.91,4.3-9.28,5.1c-2.39,0.56-4.85,0.81-7.31,0.75c-1.21-0.03-2.44-0.15-3.53-0.68
								c-3.1-1.51-4.88-7.12-5.36-10.36C75.08,52.07,76.86,46.19,79.63,41.88z"/>
							<g>
								<path class="st12" d="M80.52,42.39c2.26-3.29,5.02-5.97,8.56-7.89c1.7-0.93,3.71-2.08,5.72-1.84c2.3,0.27,3.1,2.17,4.23,4.1
									c3.7,6.31,5.18,14.58,3.01,21.68c-1.35,4.4-4.76,6.55-8.99,7.76c-3.77,1.08-9.72,2.42-12.82-0.69
									C74.24,59.53,76.79,48.62,80.52,42.39c0.68-1.13-1.09-2.17-1.77-1.03c-4.25,7.11-6.91,20.24,0.83,26.38
									c3.33,2.64,8.93,1.63,12.73,0.76c4.18-0.96,8.46-2.8,10.61-6.73c4.74-8.65,1.75-21.89-4.23-29.17
									c-2.69-3.28-4.77-2.55-8.58-0.89c-4.71,2.05-8.46,5.43-11.36,9.64C78,42.45,79.78,43.47,80.52,42.39z"/>
							</g>
						</g>
						<path class="st12" d="M92.49,37.9c0.25-0.13,0.52-0.25,0.79-0.2c0.29,0.05,0.5,0.29,0.68,0.52c3.16,3.89,4.58,9,4.58,14.01
							c0,4.05-0.98,8.36-6.02,10.11c-0.96,0.33-2,0.43-3.01,0.28c-6.84-1.01-7.78-7.48-6.47-12.67
							C84.33,44.86,87.81,40.31,92.49,37.9z"/>
					</g>
				</g>
				<g>
					<g id="Head_12_">
						<g>
							<g>
								<path class="st12" d="M27.83,60.77c3.08-6.23,11.25-27.69,35.33-24.11L62.9,36.7c24.08-3.57,32.26,17.88,35.33,24.11
									c6.54,13.24,2.79,21.36-3.92,26.66c-0.49,0.39-1,0.76-1.52,1.12c-0.56,0.39-1.14,0.75-1.72,1.11
									c0.34,0.47,0.68,0.96,1.03,1.46c-4.57,3.47-15.69,5.91-28.67,5.91c-13.5,0-24.98-2.64-29.19-6.33
									c0.26-0.37,0.51-0.72,0.76-1.07c-0.42-0.25-0.83-0.51-1.24-0.78c-0.41-0.27-0.81-0.55-1.2-0.83
									C25.35,82.78,21.02,74.54,27.83,60.77z"/>
								<g>
									<path class="st12" d="M28.71,61.29c2.55-5.24,5.03-10.45,8.98-14.82c6.7-7.41,15.68-10.05,25.47-8.78
										c-0.09-0.67-0.18-1.34-0.27-2.01c-0.09,0.01-0.17,0.03-0.26,0.04c-1.13,0.18-0.87,2.16,0.27,2.01
										c13.73-1.77,24.31,4.77,30.92,16.53c2.43,4.32,5.01,9.24,6.13,14.02c2.1,8.97-1.85,15.84-9.4,20.54
										c-0.44,0.27-0.7,0.94-0.37,1.4c0.34,0.49,0.69,0.97,1.03,1.46c0.12-0.47,0.24-0.93,0.37-1.4
										c-7.45,5.22-18.5,5.69-27.23,5.76c-5.76,0.05-11.57-0.33-17.24-1.43c-1-0.2-12.16-3.1-11.23-4.42
										c0.33-0.46,0.07-1.13-0.37-1.4C24.96,82.11,23.54,72.33,28.71,61.29c0.56-1.19-1.21-2.23-1.77-1.03
										c-5.67,12.1-4.05,22.98,7.54,30.3c-0.12-0.47-0.24-0.93-0.37-1.4c-0.25,0.36-0.51,0.71-0.76,1.07
										c-0.24,0.33-0.17,0.98,0.16,1.24c7.56,6.05,19.74,6.54,28.95,6.62c9.59,0.09,21.95-0.31,30.15-6.04
										c0.42-0.3,0.71-0.92,0.37-1.4c-0.34-0.49-0.69-0.97-1.03-1.46c-0.12,0.47-0.24,0.93-0.37,1.4
										c6.01-3.74,10.74-9.07,11.07-16.45c0.31-6.92-3.15-13.58-6.32-19.56c-6.9-13-18.32-20.86-33.43-18.91
										c0.09,0.67,0.18,1.34,0.27,2.01c0.09-0.01,0.17-0.03,0.26-0.04c1.25-0.2,0.76-1.88-0.27-2.01
										c-9.55-1.23-18.64,1.14-25.58,7.99c-4.8,4.74-7.72,10.65-10.63,16.63C26.37,61.43,28.13,62.47,28.71,61.29z"/>
								</g>
							</g>
							<path class="st12" d="M58.79,49.14c-0.47,5.52-0.94,11.04-1.41,16.55c-0.13,1.54-0.51,3.07-1.22,4.44
								c-2.27,4.43-5.35,3.77-8.17,3.1c-7.61-1.84-15.15-3.92-22.62-6.25c0.55-1.94,1.36-4.01,2.45-6.22
								c2.95-5.98,10.6-25.98,32.49-24.42C60.65,40.11,59.06,45.93,58.79,49.14z"/>
							<path class="st12" d="M97.29,84.31c-1.2,2.26-2.87,4.18-4.81,5.82c-0.46,0.39-0.93,0.76-1.42,1.12
								c-0.52,0.39-1.06,0.75-1.6,1.11c0.06,0.09,0.12,0.18,0.18,0.27c-6.27,2.33-15.69,3.82-26.22,3.82
								c-10.52,0-19.94-1.48-26.21-3.82c0.07-0.1,0.13-0.2,0.2-0.3c-0.39-0.25-0.77-0.51-1.15-0.78c-0.38-0.27-0.75-0.55-1.11-0.83
								c-2.26-1.78-4.21-3.9-5.57-6.45c0.04-0.09,0.08-0.18,0.13-0.27c3.14,4.88,16.95,8.56,33.52,8.56
								c16.93,0,30.98-3.84,33.71-8.88C97.08,83.89,97.2,84.1,97.29,84.31z"/>
						</g>
						<g>
							<g>
								<path class="st12" d="M97.7,67.8c3.97-1.27,8.2-1.76,12.36-1.43"/>
								<g>
									<path class="st12" d="M97.97,68.79c3.96-1.2,7.96-1.66,12.08-1.39c1.32,0.09,1.31-1.96,0-2.05
										c-4.31-0.28-8.5,0.21-12.63,1.47C96.17,67.19,96.7,69.17,97.97,68.79L97.97,68.79z"/>
								</g>
							</g>
							<g>
								<path class="st12" d="M97.24,74.73c4.62,0.65,9.12,2.16,13.19,4.45c0.07,0.04,0.15,0.11,0.13,0.18
									c-0.02,0.08-0.18-0.02-0.1-0.04"/>
								<g>
									<path class="st12" d="M96.96,75.72c2.16,0.33,4.28,0.79,6.36,1.46c0.89,0.29,1.77,0.61,2.63,0.96
										c0.65,0.26,3.26,1.08,3.72,1.74c0.2-0.5,0.41-1,0.61-1.5c-0.03,0.01-0.06,0.01-0.09,0.02c0.42,0.24,0.84,0.48,1.26,0.72
										c0-0.02-0.01-0.04-0.01-0.06c-0.25-1.29-2.23-0.75-1.98,0.54c0,0.02,0.01,0.04,0.01,0.06c0.11,0.57,0.75,0.82,1.26,0.72
										c0.03-0.01,0.06-0.01,0.09-0.02c0.61-0.13,0.98-0.98,0.61-1.5c-1.05-1.49-3.72-2.2-5.38-2.85
										c-2.76-1.09-5.62-1.8-8.56-2.25C96.22,73.55,95.66,75.52,96.96,75.72L96.96,75.72z"/>
								</g>
							</g>
							<g>
								<path class="st12" d="M95.47,81.64c-0.04-0.14,0.2-0.16,0.33-0.1c4.14,1.99,7.81,4.96,10.62,8.59"/>
								<g>
									<path class="st12" d="M96.2,82.37c-0.53,0.67,1.32,1.25,1.95,1.64c1.05,0.66,2.07,1.38,3.03,2.17
										c1.68,1.39,3.18,2.97,4.54,4.68c0.82,1.03,2.26-0.43,1.45-1.45c-1.95-2.45-4.2-4.59-6.77-6.38
										c-0.97-0.68-4.45-3.62-5.64-2.12C93.94,81.94,95.38,83.4,96.2,82.37L96.2,82.37z"/>
								</g>
							</g>
						</g>
						<g>
							<g>
								<path class="st12" d="M28.54,67.8c-3.97-1.27-8.2-1.76-12.36-1.43"/>
								<g>
									<path class="st12" d="M28.81,66.81c-4.13-1.26-8.32-1.75-12.63-1.47c-1.31,0.09-1.32,2.13,0,2.05
										c4.13-0.27,8.13,0.19,12.08,1.39C29.53,69.17,30.07,67.2,28.81,66.81L28.81,66.81z"/>
								</g>
							</g>
							<g>
								<path class="st12" d="M29,74.73c-4.62,0.65-9.12,2.16-13.19,4.45c-0.07,0.04-0.15,0.11-0.13,0.18
									c0.02,0.08,0.18-0.02,0.1-0.04"/>
								<g>
									<path class="st12" d="M28.73,73.75c-2.93,0.45-5.79,1.17-8.56,2.25c-1.65,0.65-4.34,1.37-5.38,2.85
										c-0.37,0.52,0,1.38,0.61,1.5c0.03,0.01,0.06,0.01,0.09,0.02c0.51,0.11,1.15-0.14,1.26-0.72c0-0.02,0.01-0.04,0.01-0.06
										c0.25-1.29-1.72-1.84-1.98-0.54c0,0.02-0.01,0.04-0.01,0.06c0.42-0.24,0.84-0.48,1.26-0.72c-0.03-0.01-0.06-0.01-0.09-0.02
										c0.2,0.5,0.41,1,0.61,1.5c0.46-0.66,3.07-1.47,3.72-1.74c0.86-0.35,1.74-0.67,2.63-0.96c2.08-0.67,4.2-1.13,6.36-1.46
										C30.57,75.52,30.02,73.55,28.73,73.75L28.73,73.75z"/>
								</g>
							</g>
							<g>
								<path class="st12" d="M30.76,81.64c0.04-0.14-0.2-0.16-0.33-0.1c-4.14,1.99-7.81,4.96-10.62,8.59"/>
								<g>
									<path class="st12" d="M31.49,80.92c-1.19-1.5-4.71,1.47-5.64,2.12c-2.57,1.79-4.82,3.93-6.77,6.38
										c-0.81,1.02,0.63,2.48,1.45,1.45c1.36-1.71,2.85-3.29,4.54-4.68c0.86-0.72,1.78-1.37,2.72-1.98
										c0.51-0.33,1.03-0.64,1.56-0.93c0.5-0.28,1.17-0.31,0.7-0.9C30.85,83.4,32.29,81.94,31.49,80.92L31.49,80.92z"/>
								</g>
							</g>
						</g>
					</g>
					<g id="Face-detail-whiskers_12_">
						<ellipse class="st12" cx="38.57" cy="78.3" rx="5.12" ry="5.13"/>
						<ellipse class="st12" cx="88.29" cy="78.3" rx="5.12" ry="5.13"/>
					</g>
				</g>
				<g id="Face_11_">
					<path class="st12" d="M55.55,68.77c0,2.83-1.81,5.13-4.04,5.13c-1.38,0-2.6-0.88-3.33-2.22c1.45-0.29,2.52-1.32,2.52-2.56
						c0-1.32-1.23-2.41-2.83-2.6c0.66-1.71,2.04-2.88,3.63-2.88C53.74,63.64,55.55,65.93,55.55,68.77z"/>
					<path class="st12" d="M73.77,68.85c0,2.83,1.81,5.13,4.04,5.13c1.38,0,2.6-0.88,3.33-2.22c-1.45-0.29-2.52-1.32-2.52-2.56
						c0-1.32,1.23-2.41,2.83-2.6c-0.66-1.71-2.04-2.88-3.63-2.88C75.58,63.72,73.77,66.01,73.77,68.85z"/>
					<path class="st12" d="M76.52,77.9c-0.49,0.62-1,1.2-1.67,1.63c-0.89,0.57-1.94,0.82-2.98,0.88c-1.31,0.07-2.66-0.12-3.9-0.56
						c-0.89-0.32-1.74-0.77-2.47-1.38c-0.25-0.21-0.53-0.46-0.74-0.73c-0.26,0.33-0.6,0.61-0.9,0.84c-1.8,1.4-4.31,1.98-6.56,1.75
						c-1-0.1-1.99-0.4-2.82-1c-0.57-0.41-1.01-0.92-1.44-1.47c-0.24-0.31,0.19-0.75,0.43-0.43c0.44,0.56,0.9,1.11,1.5,1.5
						c0.83,0.55,1.81,0.78,2.8,0.83c1.73,0.07,3.5-0.31,5-1.14c0.29-0.16,0.56-0.37,0.81-0.58c0.29-0.24,0.57-0.48,0.77-0.77V75
						c-1.73-0.17-3.07-1.39-3.07-2.44c0-1.13,1.56-2.05,3.48-2.05c1.92,0,3.48,0.92,3.48,2.05c0,1.05-1.34,2.27-3.07,2.44v2.25
						c0.22,0.35,0.58,0.65,0.92,0.91c1.7,1.31,4.06,1.82,6.16,1.6c0.91-0.09,1.79-0.39,2.53-0.93c0.51-0.38,0.91-0.87,1.3-1.36
						C76.33,77.16,76.76,77.59,76.52,77.9z"/>
					<path class="st12" d="M54.24,59.99c-0.88-1.91-2.49-3.58-4.94-3.99c-2.84-0.48-4.86,0.96-6.6,2.79
						c-0.97,1.02,0.49,2.54,1.52,1.58c1.21-1.13,2.39-2.66,4.42-2.39c1.61,0.21,2.73,1.31,3.31,2.56
						C52.5,61.75,54.8,61.22,54.24,59.99L54.24,59.99z"/>
					<path class="st12" d="M74.62,59.99c0.88-1.91,2.49-3.58,4.94-3.99c2.84-0.48,4.86,0.96,6.6,2.79c0.97,1.02-0.49,2.54-1.52,1.58
						c-1.21-1.13-2.39-2.66-4.42-2.39c-1.61,0.21-2.73,1.31-3.31,2.56C76.35,61.75,74.05,61.22,74.62,59.99L74.62,59.99z"/>
				</g>
			</g>
		</g>
		<g>
			<g id="Ears_1_">
				<g>
					<g>
						<path class="st3" d="M48.27,41.88c-3.39-5.28-8.88-9.16-14.97-10.59c-0.46-0.11-0.95-0.2-1.38-0.03
							c-0.35,0.14-0.61,0.42-0.85,0.7c-5.97,6.83-8.46,16.56-6.51,25.42c0.39,1.78,0.97,3.56,2.04,5.04c2.12,2.94,5.91,4.3,9.28,5.1
							c2.39,0.56,4.85,0.81,7.31,0.75c1.21-0.03,2.44-0.15,3.53-0.68c3.1-1.51,4.88-7.12,5.36-10.36
							C52.82,52.07,51.04,46.19,48.27,41.88z"/>
						<g>
							<path class="st7" d="M49.15,41.36c-3.39-4.93-14.36-15.66-19.94-8.75c-5.93,7.35-9,20.47-4.23,29.17
								c2.16,3.93,6.43,5.76,10.61,6.73c3.79,0.88,9.39,1.88,12.73-0.76C56.07,61.6,53.4,48.46,49.15,41.36
								c-0.68-1.13-2.45-0.1-1.77,1.03c3.75,6.27,5.95,15.86,0.91,22.22c-5.27,6.65-20.23,1.18-22.43-6.17
								c-2.06-6.88-0.8-14.81,2.63-21.03c0.65-1.17,2.03-4.12,3.29-4.73c1.84-0.89,4.77,0.65,6.4,1.48c3.8,1.92,6.8,4.75,9.19,8.23
								C48.13,43.47,49.9,42.45,49.15,41.36z"/>
						</g>
					</g>
					<path class="st7" d="M35.41,37.9c-0.25-0.13-0.52-0.25-0.79-0.2c-0.29,0.05-0.5,0.29-0.68,0.52c-3.16,3.89-4.58,9-4.58,14.01
						c0,4.05,0.98,8.36,6.02,10.11c0.96,0.33,2,0.43,3.01,0.28c6.84-1.01,7.78-7.48,6.47-12.67C43.57,44.86,40.09,40.31,35.41,37.9z
						"/>
				</g>
				<g>
					<g>
						<path class="st3" d="M79.63,41.88c3.39-5.28,8.88-9.16,14.97-10.59c0.46-0.11,0.95-0.2,1.38-0.03
							c0.35,0.14,0.61,0.42,0.85,0.7c5.97,6.83,8.46,16.56,6.51,25.42c-0.39,1.78-0.97,3.56-2.04,5.04c-2.12,2.94-5.91,4.3-9.28,5.1
							c-2.39,0.56-4.85,0.81-7.31,0.75c-1.21-0.03-2.44-0.15-3.53-0.68c-3.1-1.51-4.88-7.12-5.36-10.36
							C75.08,52.07,76.86,46.19,79.63,41.88z"/>
						<g>
							<path class="st7" d="M80.52,42.39c2.26-3.29,5.02-5.97,8.56-7.89c1.7-0.93,3.71-2.08,5.72-1.84c2.3,0.27,3.1,2.17,4.23,4.1
								c3.7,6.31,5.18,14.58,3.01,21.68c-1.35,4.4-4.76,6.55-8.99,7.76c-3.77,1.08-9.72,2.42-12.82-0.69
								C74.24,59.53,76.79,48.62,80.52,42.39c0.68-1.13-1.09-2.17-1.77-1.03c-4.25,7.11-6.91,20.24,0.83,26.38
								c3.33,2.64,8.93,1.63,12.73,0.76c4.18-0.96,8.46-2.8,10.61-6.73c4.74-8.65,1.75-21.89-4.23-29.17
								c-2.69-3.28-4.77-2.55-8.58-0.89c-4.71,2.05-8.46,5.43-11.36,9.64C78,42.45,79.78,43.47,80.52,42.39z"/>
						</g>
					</g>
					<path class="st7" d="M92.49,37.9c0.25-0.13,0.52-0.25,0.79-0.2c0.29,0.05,0.5,0.29,0.68,0.52c3.16,3.89,4.58,9,4.58,14.01
						c0,4.05-0.98,8.36-6.02,10.11c-0.96,0.33-2,0.43-3.01,0.28c-6.84-1.01-7.78-7.48-6.47-12.67
						C84.33,44.86,87.81,40.31,92.49,37.9z"/>
				</g>
			</g>
			<g>
				<g id="Head_1_">
					<g>
						<g>
							<path class="st3" d="M27.83,60.77c3.08-6.23,11.25-27.69,35.33-24.11L62.9,36.7c24.08-3.57,32.26,17.88,35.33,24.11
								c6.54,13.24,2.79,21.36-3.92,26.66c-0.49,0.39-1,0.76-1.52,1.12c-0.56,0.39-1.14,0.75-1.72,1.11
								c0.34,0.47,0.68,0.96,1.03,1.46c-4.57,3.47-15.69,5.91-28.67,5.91c-13.5,0-24.98-2.64-29.19-6.33
								c0.26-0.37,0.51-0.72,0.76-1.07c-0.42-0.25-0.83-0.51-1.24-0.78c-0.41-0.27-0.81-0.55-1.2-0.83
								C25.35,82.78,21.02,74.54,27.83,60.77z"/>
							<g>
								<path class="st8" d="M28.71,61.29c2.55-5.24,5.03-10.45,8.98-14.82c6.7-7.41,15.68-10.05,25.47-8.78
									c-0.09-0.67-0.18-1.34-0.27-2.01c-0.09,0.01-0.17,0.03-0.26,0.04c-1.13,0.18-0.87,2.16,0.27,2.01
									c13.73-1.77,24.31,4.77,30.92,16.53c2.43,4.32,5.01,9.24,6.13,14.02c2.1,8.97-1.85,15.84-9.4,20.54
									c-0.44,0.27-0.7,0.94-0.37,1.4c0.34,0.49,0.69,0.97,1.03,1.46c0.12-0.47,0.24-0.93,0.37-1.4
									c-7.45,5.22-18.5,5.69-27.23,5.76c-5.76,0.05-11.57-0.33-17.24-1.43c-1-0.2-12.16-3.1-11.23-4.42
									c0.33-0.46,0.07-1.13-0.37-1.4C24.96,82.11,23.54,72.33,28.71,61.29c0.56-1.19-1.21-2.23-1.77-1.03
									c-5.67,12.1-4.05,22.98,7.54,30.3c-0.12-0.47-0.24-0.93-0.37-1.4c-0.25,0.36-0.51,0.71-0.76,1.07
									c-0.24,0.33-0.17,0.98,0.16,1.24c7.56,6.05,19.74,6.54,28.95,6.62c9.59,0.09,21.95-0.31,30.15-6.04
									c0.42-0.3,0.71-0.92,0.37-1.4c-0.34-0.49-0.69-0.97-1.03-1.46c-0.12,0.47-0.24,0.93-0.37,1.4
									c6.01-3.74,10.74-9.07,11.07-16.45c0.31-6.92-3.15-13.58-6.32-19.56c-6.9-13-18.32-20.86-33.43-18.91
									c0.09,0.67,0.18,1.34,0.27,2.01c0.09-0.01,0.17-0.03,0.26-0.04c1.25-0.2,0.76-1.88-0.27-2.01
									c-9.55-1.23-18.64,1.14-25.58,7.99c-4.8,4.74-7.72,10.65-10.63,16.63C26.37,61.43,28.13,62.47,28.71,61.29z"/>
							</g>
						</g>
						<path class="st8" d="M58.79,49.14c-0.47,5.52-0.94,11.04-1.41,16.55c-0.13,1.54-0.51,3.07-1.22,4.44
							c-2.27,4.43-5.35,3.77-8.17,3.1c-7.61-1.84-15.15-3.92-22.62-6.25c0.55-1.94,1.36-4.01,2.45-6.22
							c2.95-5.98,10.6-25.98,32.49-24.42C60.65,40.11,59.06,45.93,58.79,49.14z"/>
						<path class="st9" d="M97.29,84.31c-1.2,2.26-2.87,4.18-4.81,5.82c-0.46,0.39-0.93,0.76-1.42,1.12
							c-0.52,0.39-1.06,0.75-1.6,1.11c0.06,0.09,0.12,0.18,0.18,0.27c-6.27,2.33-15.69,3.82-26.22,3.82
							c-10.52,0-19.94-1.48-26.21-3.82c0.07-0.1,0.13-0.2,0.2-0.3c-0.39-0.25-0.77-0.51-1.15-0.78c-0.38-0.27-0.75-0.55-1.11-0.83
							c-2.26-1.78-4.21-3.9-5.57-6.45c0.04-0.09,0.08-0.18,0.13-0.27c3.14,4.88,16.95,8.56,33.52,8.56
							c16.93,0,30.98-3.84,33.71-8.88C97.08,83.89,97.2,84.1,97.29,84.31z"/>
					</g>
					<g>
						<g>
							<g>
								<path class="st7" d="M97.97,68.79c3.96-1.2,7.96-1.66,12.08-1.39c1.32,0.09,1.31-1.96,0-2.05
									c-4.31-0.28-8.5,0.21-12.63,1.47C96.17,67.19,96.7,69.17,97.97,68.79L97.97,68.79z"/>
							</g>
						</g>
						<g>
							<g>
								<path class="st7" d="M96.96,75.72c2.16,0.33,4.28,0.79,6.36,1.46c0.89,0.29,1.77,0.61,2.63,0.96
									c0.65,0.26,3.26,1.08,3.72,1.74c0.2-0.5,0.41-1,0.61-1.5c-0.03,0.01-0.06,0.01-0.09,0.02c0.42,0.24,0.84,0.48,1.26,0.72
									c0-0.02-0.01-0.04-0.01-0.06c-0.25-1.29-2.23-0.75-1.98,0.54c0,0.02,0.01,0.04,0.01,0.06c0.11,0.57,0.75,0.82,1.26,0.72
									c0.03-0.01,0.06-0.01,0.09-0.02c0.61-0.13,0.98-0.98,0.61-1.5c-1.05-1.49-3.72-2.2-5.38-2.85c-2.76-1.09-5.62-1.8-8.56-2.25
									C96.22,73.55,95.66,75.52,96.96,75.72L96.96,75.72z"/>
							</g>
						</g>
						<g>
							<g>
								<path class="st7" d="M96.2,82.37c-0.53,0.67,1.32,1.25,1.95,1.64c1.05,0.66,2.07,1.38,3.03,2.17
									c1.68,1.39,3.18,2.97,4.54,4.68c0.82,1.03,2.26-0.43,1.45-1.45c-1.95-2.45-4.2-4.59-6.77-6.38
									c-0.97-0.68-4.45-3.62-5.64-2.12C93.94,81.94,95.38,83.4,96.2,82.37L96.2,82.37z"/>
							</g>
						</g>
					</g>
					<g>
						<g>
							<g>
								<path class="st7" d="M28.81,66.81c-4.13-1.26-8.32-1.75-12.63-1.47c-1.31,0.09-1.32,2.13,0,2.05
									c4.13-0.27,8.13,0.19,12.08,1.39C29.53,69.17,30.07,67.2,28.81,66.81L28.81,66.81z"/>
							</g>
						</g>
						<g>
							<g>
								<path class="st7" d="M28.73,73.75c-2.93,0.45-5.79,1.17-8.56,2.25c-1.65,0.65-4.34,1.37-5.38,2.85
									c-0.37,0.52,0,1.38,0.61,1.5c0.03,0.01,0.06,0.01,0.09,0.02c0.51,0.11,1.15-0.14,1.26-0.72c0-0.02,0.01-0.04,0.01-0.06
									c0.25-1.29-1.72-1.84-1.98-0.54c0,0.02-0.01,0.04-0.01,0.06c0.42-0.24,0.84-0.48,1.26-0.72c-0.03-0.01-0.06-0.01-0.09-0.02
									c0.2,0.5,0.41,1,0.61,1.5c0.46-0.66,3.07-1.47,3.72-1.74c0.86-0.35,1.74-0.67,2.63-0.96c2.08-0.67,4.2-1.13,6.36-1.46
									C30.57,75.52,30.02,73.55,28.73,73.75L28.73,73.75z"/>
							</g>
						</g>
						<g>
							<g>
								<path class="st7" d="M31.49,80.92c-1.19-1.5-4.71,1.47-5.64,2.12c-2.57,1.79-4.82,3.93-6.77,6.38
									c-0.81,1.02,0.63,2.48,1.45,1.45c1.36-1.71,2.85-3.29,4.54-4.68c0.86-0.72,1.78-1.37,2.72-1.98
									c0.51-0.33,1.03-0.64,1.56-0.93c0.5-0.28,1.17-0.31,0.7-0.9C30.85,83.4,32.29,81.94,31.49,80.92L31.49,80.92z"/>
							</g>
						</g>
					</g>
				</g>
				<g id="Face-detail-whiskers_1_">
					<ellipse class="st10" cx="38.57" cy="78.3" rx="5.12" ry="5.13"/>
					<ellipse class="st10" cx="88.29" cy="78.3" rx="5.12" ry="5.13"/>
				</g>
			</g>
			<g id="Face_2_">
				<path class="st11" d="M55.55,68.77c0,2.83-1.81,5.13-4.04,5.13c-1.38,0-2.6-0.88-3.33-2.22c1.45-0.29,2.52-1.32,2.52-2.56
					c0-1.32-1.23-2.41-2.83-2.6c0.66-1.71,2.04-2.88,3.63-2.88C53.74,63.64,55.55,65.93,55.55,68.77z"/>
				<path class="st11" d="M73.77,68.85c0,2.83,1.81,5.13,4.04,5.13c1.38,0,2.6-0.88,3.33-2.22c-1.45-0.29-2.52-1.32-2.52-2.56
					c0-1.32,1.23-2.41,2.83-2.6c-0.66-1.71-2.04-2.88-3.63-2.88C75.58,63.72,73.77,66.01,73.77,68.85z"/>
				<path class="st11" d="M76.52,77.9c-0.49,0.62-1,1.2-1.67,1.63c-0.89,0.57-1.94,0.82-2.98,0.88c-1.31,0.07-2.66-0.12-3.9-0.56
					c-0.89-0.32-1.74-0.77-2.47-1.38c-0.25-0.21-0.53-0.46-0.74-0.73c-0.26,0.33-0.6,0.61-0.9,0.84c-1.8,1.4-4.31,1.98-6.56,1.75
					c-1-0.1-1.99-0.4-2.82-1c-0.57-0.41-1.01-0.92-1.44-1.47c-0.24-0.31,0.19-0.75,0.43-0.43c0.44,0.56,0.9,1.11,1.5,1.5
					c0.83,0.55,1.81,0.78,2.8,0.83c1.73,0.07,3.5-0.31,5-1.14c0.29-0.16,0.56-0.37,0.81-0.58c0.29-0.24,0.57-0.48,0.77-0.77V75
					c-1.73-0.17-3.07-1.39-3.07-2.44c0-1.13,1.56-2.05,3.48-2.05c1.92,0,3.48,0.92,3.48,2.05c0,1.05-1.34,2.27-3.07,2.44v2.25
					c0.22,0.35,0.58,0.65,0.92,0.91c1.7,1.31,4.06,1.82,6.16,1.6c0.91-0.09,1.79-0.39,2.53-0.93c0.51-0.38,0.91-0.87,1.3-1.36
					C76.33,77.16,76.76,77.59,76.52,77.9z"/>
				<path class="st11" d="M54.24,59.99c-0.88-1.91-2.49-3.58-4.94-3.99c-2.84-0.48-4.86,0.96-6.6,2.79
					c-0.97,1.02,0.49,2.54,1.52,1.58c1.21-1.13,2.39-2.66,4.42-2.39c1.61,0.21,2.73,1.31,3.31,2.56
					C52.5,61.75,54.8,61.22,54.24,59.99L54.24,59.99z"/>
				<path class="st11" d="M74.62,59.99c0.88-1.91,2.49-3.58,4.94-3.99c2.84-0.48,4.86,0.96,6.6,2.79c0.97,1.02-0.49,2.54-1.52,1.58
					c-1.21-1.13-2.39-2.66-4.42-2.39c-1.61,0.21-2.73,1.31-3.31,2.56C76.35,61.75,74.05,61.22,74.62,59.99L74.62,59.99z"/>
			</g>
		</g>
	</g>
	<circle class="st13" cx="105.18" cy="108.19" r="8.7"/>
	<circle class="st13" cx="93.21" cy="101.65" r="3.36"/>
	<circle class="st13" cx="27.24" cy="105.01" r="5.58"/>
	<circle class="st13" cx="25.36" cy="16.7" r="9.14"/>
	<circle class="st13" cx="14.75" cy="31.23" r="3.35"/>
	<g>
	</g>
	<g>
	</g>
	<g>
	</g>
	<g>
	</g>
	<g>
	</g>
</g>
</svg>
