<!DOCTYPE svg PUBLIC "-//W3C//DTD SVG 1.1//EN" "http://www.w3.org/Graphics/SVG/1.1/DTD/svg11.dtd">
<!-- Uploaded to: SVG Repo, www.svgrepo.com, Transformed by: SVG Repo Mixer Tools -->
<svg fill="#2c3e50" version="1.1" id="Capa_1" xmlns="http://www.w3.org/2000/svg" xmlns:xlink="http://www.w3.org/1999/xlink" width="800px" height="800px" viewBox="0 0 31.249 31.249" xml:space="preserve">
<g id="SVGRepo_bgCarrier" stroke-width="0"/>
<g id="SVGRepo_tracerCarrier" stroke-linecap="round" stroke-linejoin="round"/>
<g id="SVGRepo_iconCarrier"> <g> <path d="M30.113,1.137c-2.968-2.97-11.231,0.483-14.2,3.45c-2.242,2.242-2.788,5.533-1.645,8.286 c-0.341,0.263-0.688,0.53-1.043,0.805c-0.667,0.5-1.313,1.056-1.993,1.598c-0.673,0.549-1.356,1.108-2.039,1.666 c-2.703,2.266-5.315,4.619-7.245,6.419c-0.983,0.878-1.514,1.898-1.748,2.751c-0.243,0.846-0.197,1.513-0.197,1.513 c0.13,1.911,1.656,3.484,3.622,3.621c0,0,0.667,0.046,1.512-0.197c0.851-0.231,1.874-0.763,2.752-1.747 c1.796-1.929,4.151-4.543,6.417-7.242c0.559-0.686,1.117-1.367,1.667-2.041c0.543-0.681,1.1-1.325,1.596-1.992 c0.274-0.354,0.542-0.701,0.803-1.043c2.757,1.143,6.048,0.597,8.288-1.646C29.63,12.369,33.081,4.106,30.113,1.137z"/> </g> </g>
</svg>